<svg xmlns="http://www.w3.org/2000/svg" xml:space="preserve" style="fill-rule:evenodd;clip-rule:evenodd;stroke-linejoin:round;stroke-miterlimit:2" viewBox="0 0 1024 1024"><path d="M499.8 174.5c-4.5-1.2-9.5.3-12.6 4.5-2.2 2.8-3 6.4-2.5 9.8-4.2-.6-8.6 1.3-11.3 5.2-2 3-2.7 6.5-2.1 9.9a12 12 0 0 0-11.2 5.7c-2 3.1-2.5 6.8-1.7 10.2a12 12 0 0 0-11.3 6.3 13.4 13.4 0 0 0-1 10.5 12 12 0 0 0-11.5 7 13.4 13.4 0 0 0-.5 10.4c-4.7 0-9.1 2.9-11.1 7.7-1.5 3.6-1.3 7.5.2 10.7-5 .2-9.4 3.5-11.1 8.7a13.4 13.4 0 0 0 1.2 11c-5.2.4-9.9 4.2-11.2 9.9-1 4 0 8.1 2.4 11.1-5.4.6-10 5-10.8 11-.5 4.4 1 8.5 3.8 11.2-5.6 1-10 6.2-10 12.6-.1 5 2.6 9.3 6.5 11.4l-.6.1a12.7 12.7 0 0 0-10 14.7c.8 5 4.2 8.9 8.5 10.2l-.6.2a13 13 0 0 0-7.4 16.3c1.6 4.8 5.6 8 10 8.5a8.6 8.6 0 0 0-.1.1 13.3 13.3 0 0 0-4.6 17.4 12 12 0 0 0 11.1 6.6A13.4 13.4 0 0 0 399 451c3 3.9 7.6 5.4 11.9 4.5-3.7 5.3-3 12.9 1.7 17.3a12 12 0 0 0 12.8 2.2 13.3 13.3 0 0 0 4.6 16.6c4 2.6 9 2.4 12.8 0a13 13 0 0 0 7.4 14.8c4.5 1.9 9.3.8 12.7-2.4-.2 6.2 4 11.7 9.8 13 4.5.9 9-1 11.8-4.7 1.2 5.8 6 10.2 11.7 10.3 5 .1 9.3-3 11.3-7.4 2 5.7 7.5 9.2 13.3 8.3 4.7-.8 8.4-4.4 9.8-9 3 4.7 8.7 6.9 14 5a13 13 0 0 0 8.2-11.3c3.7 4.2 9.7 5.3 14.7 2.4 4.5-2.6 6.8-7.9 6.2-13a11.7 11.7 0 0 0 14.8-.4c4-3.3 5.4-8.8 4-13.7 4.7 2.2 10.3 1 14-3.3a13.9 13.9 0 0 0 1.3-15c5 1.5 10.6-.7 13.5-5.7a13.3 13.3 0 0 0-1.2-15 12 12 0 0 0 12-8c2-5.5.4-11.4-3.7-14.8 5-.7 9.3-4.6 10.4-10.2a13 13 0 0 0-6.5-14c4.8-1.6 8.4-6.2 8.6-11.9.1-5.5-3-10.3-7.5-12.2a13 13 0 0 0 5.6-12.2 13 13 0 0 0-8.4-11c3.2-3 4.8-7.5 3.8-12.2-1-5-4.7-8.7-9.2-9.8 2.7-3.2 3.7-7.8 2.4-12.2a12.4 12.4 0 0 0-9.5-8.7 13 13 0 0 0 1-11.9 12.2 12.2 0 0 0-9.9-7.8c1.8-3.6 2-8 .2-11.8a12 12 0 0 0-10-7c1.4-3.7 1.3-7.9-.7-11.5a12 12 0 0 0-10.1-6.4c1.1-3.6.8-7.6-1.3-11a12 12 0 0 0-10.4-5.9c1-3.6.4-7.6-1.8-10.9a12 12 0 0 0-10.3-5.4c.7-3.5 0-7.4-2.3-10.5a11.9 11.9 0 0 0-10.7-4.9c.6-3.6-.3-7.5-2.7-10.5-2.8-3.5-6.9-5-10.8-4.5.4-3.6-.6-7.3-3-10.2a12 12 0 0 0-11.3-4c.2-3.6-1-7.3-3.5-10-4.9-5.2-12.7-5-17.4.1-2.8 3-3.9 7.3-3.2 11.2Zm19.9 342.9c-3.3.5-6.2-2-6.7-5.5-.5-3.6 1.6-7 5-7.5 3.2-.6 6.2 2 6.7 5.5s-1.7 7-5 7.5Zm-23.5-1c-3.3 0-5.8-3.1-5.8-6.7.1-3.5 2.8-6.5 6.1-6.4 3.3 0 5.9 3.1 5.8 6.7 0 3.6-2.7 6.5-6 6.4Zm46.2-2.7c-3.1 1-6.4-.8-7.5-4.1-1-3.5.6-7.3 3.8-8.4 3.1-1.1 6.4.8 7.4 4 1.1 3.5-.5 7.3-3.7 8.5Zm-68.6-2.8c-3.3-.7-5.3-4.2-4.7-7.8.6-3.4 3.7-5.8 7-5.1 3.2.7 5.3 4.2 4.6 7.7-.6 3.5-3.6 5.9-6.9 5.2Zm90.5-5.6c-2.9 1.7-6.4.4-8-2.6-1.6-3.2-.5-7.3 2.5-9 2.8-1.7 6.3-.5 7.9 2.6 1.6 3.2.6 7.3-2.4 9Zm-55.6-320.7c.6 3.6-.2 7.3-2.4 10.3-2.8 3.7-7 5.3-11 4.8.4 3.2-.3 6.6-2.3 9.4a11.9 11.9 0 0 1-10.8 5.2c.5 3.2 0 6.6-1.8 9.5a12 12 0 0 1-11 5.7c.8 3.2.4 6.6-1.3 9.7a12 12 0 0 1-11.1 6.2c1 3.2.8 6.8-.7 10a12 12 0 0 1-10.8 6.9 13.4 13.4 0 0 1-.2 9.7c-2 4.7-6.3 7.5-10.8 7.7a13.4 13.4 0 0 1 .6 9.8 12.2 12.2 0 0 1-11 8.6 13.4 13.4 0 0 1 1.7 10 12.4 12.4 0 0 1-10.6 9.7c2 2.6 3.1 6 2.6 9.7-.7 5.8-4.9 10-10 11a13 13 0 0 1 4 9.5c0 6.6-4.8 12-10.8 12.7 3.3 1.8 5.8 5.1 6.4 9.3a13 13 0 0 1-8.4 14.3c3.6 1.2 6.6 4 8 8 2 6-.6 12.6-5.7 15.5 3.8.5 7.2 2.8 9.2 6.5 2.8 5.4 1.5 12-2.6 15.9a12 12 0 0 1 10 4.8c3.5 4.6 3.4 11 .2 15.6 3.7-.7 7.5.2 10.5 3a13.4 13.4 0 0 1 3 15.3c3.4-1.6 7.5-1.4 11 .9 4.6 3 6.7 8.6 5.5 13.9 3.2-2 7.2-2.6 10.9-1 4.9 2 7.9 7 7.7 12.2 2.8-2.6 6.7-3.9 10.6-3 4.9 1 8.6 5 9.6 10 2.3-3 5.8-5 9.7-4.9 5.2.2 9.5 3.6 11.2 8.5 1.7-3.8 5-6.6 9.2-7.3a12 12 0 0 1 12 5.5 11.8 11.8 0 0 1 20.4-5.1 13 13 0 0 1 6.2-10.3c4.3-2.5 9.4-2 13.1.8-.5-4.3 1-8.8 4.4-11.7 3.6-3.1 8.4-3.7 12.4-1.9-1.1-4-.3-8.7 2.5-12.1 3.2-3.8 8-5.2 12.3-4-2.2-4-2.3-9 .1-13.1a12 12 0 0 1 11.1-6.2 13.4 13.4 0 0 1-2-13 12 12 0 0 1 9.7-8c-3.5-3-5.3-7.8-4.4-12.7 1-4.7 4.3-8.3 8.3-9.6a13 13 0 0 1-6.7-12 13 13 0 0 1 5.8-10.4c-4-1.7-7-5.6-7.5-10.5-.4-4.3 1.2-8.2 4-10.9-4-1.3-7.2-4.8-8.2-9.4-.8-4.1.3-8.1 2.7-11a13 13 0 0 1-9-8.7 13.4 13.4 0 0 1 1.5-10.8c-4-.8-7.5-3.5-9.1-7.8-1.5-3.7-1.1-7.7.5-11a12 12 0 0 1-9.6-7 13.4 13.4 0 0 1-.3-10.6 12 12 0 0 1-9.7-6.5c-1.8-3.3-2-7-1-10.4a12 12 0 0 1-9.8-5.9c-2-3.2-2.4-7-1.4-10.4a12 12 0 0 1-10.1-5.4c-2-3-2.7-6.7-2-10-3.8 0-7.5-1.6-10-5-2.2-3-3-6.7-2.4-10.1-3.8.3-7.7-1.2-10.4-4.5a13.3 13.3 0 0 1-2.8-9.9c-3.7.5-7.7-.9-10.4-4a13.2 13.2 0 0 1-3.2-9.8 11.6 11.6 0 0 1-5.3-.2Zm-56.2 316.2a6.7 6.7 0 0 1-3.4-8.6c1.1-3.3 4.5-5 7.5-3.8 3.2 1.3 4.7 5.2 3.5 8.6-1.2 3.3-4.6 5-7.6 3.8Zm131.9-8.2a5.6 5.6 0 0 1-8.2-1 7 7 0 0 1 1-9.5 5.6 5.6 0 0 1 8.1 1 7 7 0 0 1-1 9.5Zm-151.1-6.2a7 7 0 0 1-2-9.1c1.6-3 5.2-4 8-2.3a7 7 0 0 1 2 9.2c-1.7 3-5.2 4-8 2.2Zm168.2-10.1a5.6 5.6 0 0 1-8.2.5 7 7 0 0 1-.5-9.4 5.5 5.5 0 0 1 8.2-.6 7 7 0 0 1 .5 9.5Zm-184.7-8a7 7 0 0 1-.6-9.5c2-2.6 5.8-2.9 8.2-.6a7 7 0 0 1 .6 9.4 5.6 5.6 0 0 1-8.2.7Zm199-11.8c-1.7 3-5.3 4-8 2.1a7 7 0 0 1-2-9.2c1.7-3 5.3-4 8-2 3 1.9 3.8 6 2 9.1Zm-212-9.2a7 7 0 0 1 .9-9.4 5.6 5.6 0 0 1 8.2.9 7 7 0 0 1-.9 9.4 5.6 5.6 0 0 1-8.2-1Zm222.4-13c-1.2 3.3-4.6 5-7.6 3.6-3.2-1.3-4.6-5.2-3.3-8.6 1.2-3.2 4.6-5 7.6-3.6 3.1 1.3 4.6 5.2 3.3 8.6ZM394.7 424a7 7 0 0 1 2.3-9.1 5.7 5.7 0 0 1 8 2.4 7 7 0 0 1-2.3 9.1 5.7 5.7 0 0 1-8-2.4Zm237.8-13.5c-.6 3.5-3.7 5.8-7 5-3.2-.7-5.2-4.2-4.5-7.8.6-3.4 3.7-5.7 7-5 3.2.7 5.2 4.3 4.5 7.8ZM390 398.8c-1.2-3.4.4-7.2 3.6-8.4 3.1-1.2 6.4.7 7.5 4 1.1 3.4-.4 7.2-3.7 8.4-3 1.2-6.3-.7-7.4-4Zm244.6-13.3c-.1 3.6-2.8 6.5-6.1 6.4-3.3-.1-5.8-3.3-5.7-6.8.1-3.6 2.8-6.5 6.1-6.4 3.3.2 5.8 3.3 5.7 6.8Zm-245-12.3c-.5-3.6 1.6-7 5-7.6 3.2-.6 6.2 1.9 6.7 5.3.6 3.6-1.5 7-4.9 7.7-3.2.5-6.2-2-6.7-5.4Zm243.2-11.3c.4 3.5-2 6.8-5.3 7.2-3.3.4-6.1-2.3-6.5-5.8-.3-3.6 2-7 5.3-7.3 3.3-.3 6.2 2.3 6.5 5.9Zm-239-14c0-3.6 2.6-6.6 6-6.5 3.3 0 5.8 3 5.8 6.6 0 3.5-2.6 6.5-6 6.5-3.3 0-5.9-3-5.8-6.6Zm234.5-8.5c.7 3.5-1.3 7-4.6 7.9-3.2.7-6.3-1.6-7-5-.7-3.5 1.3-7.1 4.6-7.9 3.2-.8 6.3 1.5 7 5ZM399.9 325c.5-3.5 3.4-6.1 6.6-5.7 3.4.5 5.6 3.9 5.1 7.5-.4 3.5-3.3 6-6.6 5.6-3.3-.5-5.5-3.9-5-7.4Zm221.6-7c1 3.4-.6 7.2-3.8 8.3-3.1 1-6.4-.9-7.4-4.2-1-3.5.6-7.2 3.8-8.4 3.1-1 6.4.9 7.4 4.2Zm-213.3-14.6c.8-3.4 4-5.6 7.1-4.8 3.3.9 5.2 4.5 4.4 8-.8 3.4-4 5.6-7.1 4.8-3.3-.9-5.2-4.5-4.4-8Zm205-5.6c1.4 3.4 0 7.3-3.2 8.7-3 1.4-6.4-.2-7.6-3.4-1.3-3.4 0-7.3 3.2-8.8 3-1.3 6.4.3 7.7 3.5ZM418 283c1-3.3 4.4-5.1 7.5-4 3.2 1.2 4.8 5 3.6 8.5-1 3.3-4.4 5.2-7.4 4-3.2-1.2-4.8-5-3.7-8.5Zm185.6-4.4a7 7 0 0 1-2.6 9c-2.9 1.5-6.4.2-7.9-3s-.4-7.2 2.7-8.9c2.9-1.6 6.4-.2 7.8 2.9ZM428.7 264c1.3-3.1 4.8-4.7 7.7-3.3 3.2 1.5 4.5 5.4 3.1 8.8-1.3 3.2-4.7 4.7-7.7 3.3a6.7 6.7 0 0 1-3-8.8Zm164.4-3.7a7 7 0 0 1-2.1 9.2 5.7 5.7 0 0 1-8-2.4 7 7 0 0 1 2.1-9 5.6 5.6 0 0 1 8 2.2Zm-152.9-14c1.5-3.1 5-4.4 8-2.8 3 1.7 4 5.7 2.4 9-1.5 3-5 4.3-7.8 2.7a7 7 0 0 1-2.6-9Zm141.7-3.1a7 7 0 0 1-1.8 9.2 5.5 5.5 0 0 1-8-1.9 7 7 0 0 1 1.7-9.2c2.7-1.9 6.3-1 8 1.9ZM452.6 229c1.7-3 5.2-4 8-2.2a7 7 0 0 1 2 9.2c-1.6 3-5.2 4-8 2.2a7 7 0 0 1-2-9.2Zm117.2-2.4a7 7 0 0 1-1.3 9.3 5.6 5.6 0 0 1-8.1-1.4 7 7 0 0 1 1.3-9.3c2.6-2 6.2-1.4 8.1 1.4ZM465.4 213a5.6 5.6 0 0 1 8-1.7 7 7 0 0 1 1.7 9.2 5.6 5.6 0 0 1-8.1 1.8 7 7 0 0 1-1.6-9.3Zm92-1.9a7 7 0 0 1-1 9.4 5.6 5.6 0 0 1-8.2-1 7 7 0 0 1 1-9.4 5.6 5.6 0 0 1 8.1 1Zm-78.9-13.5c2-2.7 5.6-3.3 8.2-1.3a7 7 0 0 1 1.2 9.4 5.6 5.6 0 0 1-8.1 1.3 7 7 0 0 1-1.3-9.4Zm65.6-1.7a7 7 0 0 1-.6 9.4 5.6 5.6 0 0 1-8.2-.6 7 7 0 0 1 .6-9.5 5.6 5.6 0 0 1 8.2.7Zm-51.9-13c2-2.7 5.7-3.2 8.2-1a7 7 0 0 1 .9 9.4 5.6 5.6 0 0 1-8.2 1 7 7 0 0 1-.9-9.5Zm38.2-1.5a7 7 0 0 1-.3 9.5 5.5 5.5 0 0 1-8.2-.4 7 7 0 0 1 .3-9.4c2.3-2.4 6-2.2 8.2.3Zm-14.6-13.9a7 7 0 0 1 .1 9.5 5.5 5.5 0 0 1-8.2 0 7 7 0 0 1-.1-9.4c2.3-2.4 6-2.5 8.2 0Z"/><circle cx="524.9" cy="83.6" r="9"/><circle cx="499.1" cy="83.6" r="9"/><circle cx="512" cy="60.4" r="9"/><path d="M190 902.5c-7.2 0-13.4-1.2-18.6-3.7a42.2 42.2 0 0 1-14-11l11.5-11.5a29 29 0 0 0 9.2 8c3.5 2 7.8 3 12.8 3 4.5 0 8-1 10.8-2.7 2.6-1.8 4-4.3 4-7.4 0-2.8-.8-5-2.3-6.7a19 19 0 0 0-6-4.3 68.8 68.8 0 0 0-8.4-3.3 111.7 111.7 0 0 1-9-3.4 38 38 0 0 1-8.3-4.7c-2.5-2-4.5-4.4-6-7.4-1.6-3-2.4-6.9-2.4-11.5a24 24 0 0 1 4-13.9c2.6-3.8 6.2-6.7 10.8-8.8 4.6-2 9.8-3 15.6-3 6.1 0 11.6 1.1 16.6 3.4 5 2.3 9 5.3 12.1 9L210.9 834c-2.6-2.9-5.3-5-8-6.3a21 21 0 0 0-9.5-2c-4 0-7.1.7-9.4 2.2a7.5 7.5 0 0 0-3.5 6.6c0 2.5.8 4.5 2.3 6 1.6 1.6 3.6 2.9 6.1 4 2.5 1.1 5.3 2.2 8.3 3.2a131.4 131.4 0 0 1 9 3.4 34 34 0 0 1 8.3 5c2.6 2 4.6 4.7 6.1 7.8a28 28 0 0 1 2.3 11.9 24 24 0 0 1-8.8 19.6 37 37 0 0 1-24.1 7.1Zm84.3-75.5h-28.6v-15.4h74.7V827h-28.6v74.3h-17.5V827Zm83.5 57.6-6.4 16.7h-18.1l36-89.7h14.2l36 89.7H401l-6.3-16.7h-37Zm5.5-14.6h25.9l-12.8-34-13 34Z" style="fill-rule:nonzero"/><path d="M484.6 811.6c5.7 0 10.8 1.1 15.3 3.4a26.6 26.6 0 0 1 14.8 24.8 26.6 26.6 0 0 1-14.7 24.8 33.6 33.6 0 0 1-15.4 3.4h-18v33.3h-17.4v-89.7h35.4Zm-18 42.2v-28h16.2c2.7 0 5.2.5 7.4 1.6a12.5 12.5 0 0 1 5.2 4.8c1.3 2.2 2 4.7 2 7.6 0 3-.7 5.5-2 7.6-1.3 2-3 3.6-5.2 4.7a16.3 16.3 0 0 1-7.4 1.7h-16.2Z"/><path d="M546 901.3v-89.7h61.8v15.3h-44.4V848H604v14.8h-40.6v23h45v15.4h-62.3Zm96 0v-89.7h17.4v74.2h41v15.5H642Zm90-89.7h17.4v89.7h-17.3zm72.8 73-6.4 16.7h-18.1l36.1-89.7h14.2l36 89.7H848l-6.3-16.7h-36.9Zm5.6-14.6h25.8l-12.8-34-13 34Zm-448 102.6c-2 0-3.6-.4-5-1.2a10 10 0 0 1-3.6-3l3.1-3a6.2 6.2 0 0 0 2.3 2.1c.9.5 2 .7 3 .7a6 6 0 0 0 3-.7 5 5 0 0 0 2-2.1c.5-1 .8-2.1.8-3.5v-23h4.5v22.8a12 12 0 0 1-1.3 5.7 9.5 9.5 0 0 1-8.8 5.2Zm39.8 0c-2.3 0-4.5-.5-6.6-1.4a16.4 16.4 0 0 1-5.3-3.6 17 17 0 0 1-3.6-5.5 17.6 17.6 0 0 1 0-13.3 17 17 0 0 1 3.5-5.5 16 16 0 0 1 5.4-3.6c2-.9 4.2-1.3 6.5-1.3 2.4 0 4.6.4 6.6 1.3a16.3 16.3 0 0 1 5.3 3.6 17 17 0 0 1 3.6 5.5c.9 2 1.3 4.3 1.3 6.7 0 2.3-.4 4.5-1.3 6.6a17.3 17.3 0 0 1-3.5 5.5 16.4 16.4 0 0 1-5.3 3.6c-2 1-4.2 1.4-6.6 1.4Zm0-4.4a11.7 11.7 0 0 0 10.5-6.1c1-2 1.6-4.2 1.6-6.7 0-1.8-.3-3.5-1-5a10 10 0 0 0-2.5-4.1 11.2 11.2 0 0 0-3.8-2.7c-1.5-.6-3-.9-4.9-.9-2.3 0-4.4.5-6.2 1.6a12.4 12.4 0 0 0-4.3 4.5c-1 2-1.5 4.1-1.5 6.6 0 1.9.3 3.6.9 5.2a12 12 0 0 0 2.4 4 11.4 11.4 0 0 0 3.9 2.7c1.5.6 3 1 4.8 1Zm33-3.6-3 7.5h-4.9l13.6-33.2h3.3l13.5 33.2h-4.9l-3-7.5h-14.7Zm1.5-4h11.6l-5.8-14.5-5.8 14.5ZM470 939h4.5v33H470zm19.5 33.2V939h4.5v29h16.4v4.2h-20.9Zm33.6 0V939h4.5v29h16.3v4.2H523Zm33.6 0V939h21.8v4h-17.3v10.2h16v4h-16V968h17.6v4h-22.1Z" style="fill-rule:nonzero"/><path d="M604.2 938.9c2 0 4 .4 5.5 1.2a9 9 0 0 1 4.8 8.1c0 2-.4 3.6-1.2 5s-2 2.5-3.6 3.3c-1.4.6-3 1-4.8 1.1l11.9 14.5h-5.7l-11.7-14.5h-3v14.5H592v-33.2h12.2Zm-7.7 15v-11.1h7.5c2 0 3.5.5 4.5 1.6 1 1 1.6 2.3 1.6 4 0 1.6-.6 3-1.6 4s-2.6 1.4-4.5 1.4h-7.5Z"/><path d="M628.6 938.9h4.5V972h-4.5zm19.5 33.2v-33.2H670v4h-17.4v10.2h16v4h-16V968h17.6v4h-22Z" style="fill-rule:nonzero"/><path d="M399.1 506.3c-21.7-12.5-47.3-13.7-79.8-1.4l-.4.2-.4.2-.3.2-.3.3-.3.3-.2.3-.3.4-.1.3-.2.3v.4l-.2.4v1.3l.2.4v.2a170 170 0 0 0 17.6 39.4c5.9 9 12.7 16 20.8 20.4a181 181 0 0 0-18 64v1.6l.1.5.1.4.2.6.3.5.3.5.4.5.3.4.4.4.4.4.6.3.3.2.5.2.4.2.5.1.4.1h.2a246 246 0 0 0 62 1.2 121 121 0 0 0 10.3 33.2l.3.6.3.5.5.4.4.4.6.3.5.2.6.2h1.2l.4-.1.4-.1h.2c15.6-6.2 29.9-12.6 39.1-21.8 9.1 20.4 25.3 40.8 48.5 61.1l.3.3.3.2.5.3.5.2.5.2.4.1.6.2h2.1l.3-.1h.3l.3-.2h.2l.3-.2.6-.3.4-.2.4-.3.2-.2c23-20.2 39.3-40.5 48.4-60.9 9.2 9.1 23.4 15.5 39 21.5l.5.2h1.8l.6-.2.6-.2.5-.4.4-.4.4-.4.2-.4.2-.3v-.2c5-11.7 9.3-22.8 10.5-33.2 18.5 2.3 39.2 2 62.2-1.2h.6l.5-.2.4-.2.5-.2.3-.2.5-.3.5-.4.4-.4.4-.5.3-.4.3-.5.3-.5.2-.6v-.4l.2-.5V634a181 181 0 0 0-18-64c8-4.3 15-11.3 20.8-20.4a170 170 0 0 0 17.6-39.4l.1-.5v-2l-.2-.4-.2-.3-.2-.4-.2-.3-.3-.3-.3-.3-.3-.2-.4-.3-.4-.2h-.1c-32.5-12.3-58.1-11-79.8 1.4 28.3-28.7 45.8-68 45.8-111.5 0-57-24.7-113.7-54.6-161.2-44.4-70.5-100-120.4-100-120.4a6.3 6.3 0 0 0-8.3 0s-55.5 50-99.9 120.4c-29.9 47.5-54.6 104.2-54.6 161.2 0 43.4 17.5 82.8 45.8 111.5ZM532.8 552a159.8 159.8 0 0 1-41.6 0c-46.2 51-36.6 101.5 20.7 151.7h.1c32.4-28.3 49.6-56.8 50-85.4.4-22-9-44.1-29.2-66.3Zm39.7 75.8a101 101 0 0 1-4.6 19.6c7.4 9.2 20.4 15 34.7 20.8 4-9.7 7.5-18.9 8.3-27.5a127.8 127.8 0 0 1-38.4-12.9Zm-121 0a128 128 0 0 1-38.8 13c.9 8.6 4.4 17.7 8.3 27.4 14.5-5.8 27.7-11.7 35-21.1a94.7 94.7 0 0 1-4.5-19.3ZM425 527.5a97.9 97.9 0 0 0-30.8 15c-24.3 17.8-38.4 47.1-43.8 86.7 41.9 4.8 75.6.2 100.5-15.3.8-21.3 9.5-42.7 26.7-64.2a157.8 157.8 0 0 1-52.6-22.2Zm174 0a157.8 157.8 0 0 1-52.6 22.2c17.2 21.5 25.9 42.9 26.7 64.2 24.9 15.5 58.6 20.1 100.5 15.3-5.4-39.6-19.5-69-43.8-86.8a97.9 97.9 0 0 0-30.8-15Zm-193-6.3c-21.3-17.4-46.6-21.6-80-9.9 4.4 12.8 9.3 24.4 15.4 33.7 5 7.8 11 14 17.9 17.7a105.2 105.2 0 0 1 46.7-41.5Zm258.7 41.5c7-3.7 12.8-9.9 17.9-17.7 6-9.3 11-20.9 15.4-33.7-33.5-11.7-58.7-7.5-80 10a105 105 0 0 1 46.7 41.4ZM512 126.4c-.3.2-147.2 132.7-147.2 267.4 0 79.8 63.6 144.8 142.8 147.1h8.8a147.3 147.3 0 0 0 142.8-147.1c0-134.7-147-267.2-147.2-267.4Z"/></svg>